PathFileType	4	(X/Y/Z)	 s03c0403.trc
DataRate	CameraRate	NumFrames	NumMarkers	Units	OrigDataRate	OrigDataStartFrame	OrigNumFrames
200	200	5	52	mm	200	1501	2000
Frame#	Time	racr			lacr			c7			jug			rlel			rdr			llel			ldr			s2			lic			ric			lasi			rasi			rpsi			lpsi			rgt			lgt			rth1			rth2			rth3			rth4			rlfc			rmfc			rsh1			rsh2			rsh3			rsh4			rlmal			rmmal			rcal			rtoe			rmt5			rmt1			lth1			lth2			lth4			lth3			llfc			lmfc			lsh1			lsh2			lsh3			lsh4			llmal			lmmal			lcal			ltoe			lmt1			lmt5			SBIKE			LBIKE			RBIKE			
		X1	Y1	Z1	X2	Y2	Z2	X3	Y3	Z3	X4	Y4	Z4	X5	Y5	Z5	X6	Y6	Z6	X7	Y7	Z7	X8	Y8	Z8	X9	Y9	Z9	X10	Y10	Z10	X11	Y11	Z11	X12	Y12	Z12	X13	Y13	Z13	X14	Y14	Z14	X15	Y15	Z15	X16	Y16	Z16	X17	Y17	Z17	X18	Y18	Z18	X19	Y19	Z19	X20	Y20	Z20	X21	Y21	Z21	X22	Y22	Z22	X23	Y23	Z23	X24	Y24	Z24	X25	Y25	Z25	X26	Y26	Z26	X27	Y27	Z27	X28	Y28	Z28	X29	Y29	Z29	X30	Y30	Z30	X31	Y31	Z31	X32	Y32	Z32	X33	Y33	Z33	X34	Y34	Z34	X35	Y35	Z35	X36	Y36	Z36	X37	Y37	Z37	X38	Y38	Z38	X39	Y39	Z39	X40	Y40	Z40	X41	Y41	Z41	X42	Y42	Z42	X43	Y43	Z43	X44	Y44	Z44	X45	Y45	Z45	X46	Y46	Z46	X47	Y47	Z47	X48	Y48	Z48	X49	Y49	Z49	X50	Y50	Z50	X51	Y51	Z51	X52	Y52	Z52	
1501	7.5050	779.902833	1405.719580	-71.263771	780.748138	1401.926480	-397.666077	732.002729	1494.516394	-237.206113	716.975329	1316.909618	-228.751144	622.389005	1204.107389	91.014365	748.760626	978.422301	0.890553	643.110151	1210.498644	-571.342610	740.105624	980.778500	-447.136629	175.760516	1265.641307	-211.528553	339.914544	1270.026517	-408.369793	354.555722	1282.661018	-41.346808	356.319693	1201.356668	-366.803604	372.443815	1211.963208	-82.378555	210.649720	1314.253734	-169.271616	210.401339	1311.251186	-246.577770	304.651739	1183.228295	-19.743875	274.083828	1153.774760	-413.934687	397.235205	1060.050723	-5.131954	472.641856	1012.682736	-7.825064	515.190466	938.334546	-7.369850	496.174538	1035.460846	-24.573692	569.370269	821.529070	-26.384031	564.973635	799.476360	-149.879511	427.808428	727.729130	-7.965337	365.212180	669.029843	-25.662650	277.958245	648.091677	-31.533692	380.220872	645.976478	-51.763657	160.931785	597.738691	-57.648209	189.450834	584.597077	-141.168305	96.002115	625.947307	-96.594377	236.294069	350.107761	-116.065776	168.348841	443.170020	-41.522863	190.215738	435.510617	-156.445155	339.919658	1001.810995	-431.471825	392.680856	933.120282	-428.434713	426.180117	947.655864	-424.376687	404.767209	845.719001	-414.664137	468.206480	734.640613	-393.239706	466.963831	721.684873	-273.714544	391.202846	580.130687	-423.758263	380.217243	497.337618	-407.508272	327.623515	424.213455	-408.069805	410.267976	487.269550	-384.670547	271.216229	311.535731	-398.355446	301.636750	314.335992	-301.573348	195.949752	277.373976	-355.698204	500.195978	208.603133	-352.008327	405.636170	225.597265	-308.276421	379.222459	214.733406	-426.983504	-210.527246	947.413217	-228.856836	-4.393892	83.809040	-432.955398	-8.676335	81.091030	-32.596600	
1502	7.5100	778.324139	1405.565486	-69.625137	780.387393	1401.864584	-396.162778	731.379988	1494.043312	-235.973241	716.845289	1316.577228	-227.249205	620.966572	1203.396653	92.231601	748.571646	978.267240	1.184957	643.567308	1210.934031	-570.893505	740.271336	980.650030	-447.637391	175.408429	1265.092126	-212.939751	340.889066	1268.646294	-408.667087	353.207055	1282.042524	-41.787230	357.057834	1199.974933	-367.258563	373.124719	1208.860578	-91.601898	210.041384	1313.790277	-170.549518	210.892246	1310.158664	-248.484671	304.973854	1184.483539	-20.466649	273.515638	1151.536619	-413.848723	399.279043	1062.945993	-5.550592	475.492710	1017.064783	-8.284809	519.631929	943.542580	-7.685295	498.512251	1040.188399	-25.822606	575.089655	826.820317	-26.391037	569.961317	804.783085	-149.810125	433.729687	733.478365	-8.464060	369.117035	675.166060	-27.536416	283.110215	655.449766	-32.127158	385.857568	651.758576	-52.724829	165.332933	606.028359	-58.151125	193.741754	593.374571	-141.726189	99.224948	633.116662	-96.901001	244.975403	360.035497	-116.204131	175.723624	451.809748	-41.574939	197.322912	444.430722	-156.871376	336.120473	998.137244	-431.425388	387.492637	928.353780	-428.355304	421.202538	942.312643	-424.550412	397.853904	840.854268	-414.153874	459.483582	729.204927	-392.526887	458.358030	716.090194	-273.669020	383.198513	574.920974	-424.096712	372.988363	491.841054	-407.595817	320.843900	418.309901	-408.167597	403.165411	481.804776	-384.725401	264.909765	305.345136	-398.361711	295.685528	308.433636	-301.874558	189.904133	272.214068	-355.969281	493.233829	199.126651	-351.873914	398.847069	217.621330	-308.329174	372.388275	206.881641	-427.078869	-210.545520	947.397908	-228.909420	-4.406616	83.763291	-432.966811	-8.676283	81.064093	-32.596928	
1503	7.5150	776.854670	1405.209774	-67.835174	780.009289	1401.734226	-394.712277	730.801246	1493.561996	-234.681199	716.588762	1316.099029	-225.875808	619.607621	1202.517917	93.343333	748.440006	978.163269	1.493132	644.126684	1211.404349	-570.346895	740.453735	980.500070	-448.043749	174.920403	1264.124093	-214.338187	342.091194	1267.581432	-408.971203	351.791738	1281.495776	-42.182955	357.817104	1198.688722	-367.391953	372.470108	1208.525808	-92.223014	209.396642	1313.264318	-172.118343	211.016861	1309.365135	-250.464669	304.970968	1186.050211	-21.246388	273.199825	1149.425506	-413.992423	401.049361	1065.968389	-5.838242	478.036195	1021.462359	-8.511960	523.634953	948.836733	-7.952471	500.564809	1044.841764	-26.849916	580.931247	832.302212	-26.486925	575.660505	810.567283	-150.364670	439.574421	739.204984	-9.072665	374.468398	681.551312	-28.417365	288.376777	662.537593	-32.790522	390.876784	658.250253	-53.943727	170.085460	613.847343	-58.648003	198.258026	601.825499	-142.399495	102.779190	639.582048	-97.453638	255.048326	370.205103	-116.004389	182.937107	460.045463	-42.061025	204.735097	452.199136	-157.542634	332.469383	994.850760	-431.368006	382.425769	924.016671	-428.296315	416.395359	937.312483	-424.749765	391.227077	836.122792	-413.240962	450.913395	724.373799	-392.171401	449.796828	710.938292	-273.542677	375.558267	569.935173	-423.959458	365.730127	486.733679	-407.688586	313.967536	413.012968	-408.317528	395.935452	477.104515	-385.254066	258.372186	299.847984	-398.447472	289.543744	303.267881	-302.181910	183.648761	267.778242	-356.167370	485.756356	190.202581	-351.871940	391.726623	210.167212	-308.459136	365.118056	199.600807	-427.165350	-210.574366	947.384394	-228.968669	-4.421103	83.744901	-432.980620	-8.674022	81.066985	-32.619481	
1504	7.5200	775.598773	1405.367151	-64.356738	779.679850	1401.603461	-393.225840	730.308845	1493.108095	-233.251014	716.199473	1315.786011	-224.533573	618.307844	1201.565099	94.316340	748.538372	977.989720	2.162829	644.506957	1211.889979	-569.832813	741.027597	980.476655	-448.215242	174.384551	1263.133989	-215.978550	343.542224	1266.719111	-409.349428	350.290212	1280.814953	-43.010894	358.610433	1197.561393	-367.169553	371.739097	1208.265227	-92.705770	208.711923	1312.713804	-173.933107	210.208661	1308.714126	-256.481760	304.656845	1187.798818	-22.056746	273.062381	1147.520987	-414.185455	402.518262	1069.162207	-6.022490	480.488953	1025.977997	-9.076441	527.154550	954.134119	-8.156602	502.265068	1049.613975	-27.517859	586.582370	837.803730	-26.611146	581.272079	816.517342	-150.966194	445.311151	744.994300	-9.766011	379.679881	687.670302	-29.119400	293.553905	669.393238	-33.520589	396.010299	664.621684	-55.192530	175.129446	621.095654	-59.211966	202.923323	609.928588	-143.292305	106.488320	645.225724	-98.242516	264.451659	379.224185	-116.345281	190.614970	467.797176	-42.452155	211.971890	460.344426	-158.512624	328.929589	991.997383	-431.349278	377.467676	920.219034	-428.304268	411.716508	932.773329	-424.921975	384.379942	832.366128	-413.470761	442.483269	720.015776	-391.891339	441.061552	706.155272	-273.525529	367.991230	565.834527	-424.718601	358.457281	482.213130	-407.832681	306.988014	408.265240	-408.498079	388.511651	472.125252	-384.259770	251.700426	294.964294	-398.436084	283.234673	298.820355	-302.495448	177.197638	263.998263	-356.450031	477.990967	181.393133	-351.743805	384.250646	203.167398	-308.584656	357.524632	192.701443	-427.280853	-210.599778	947.376523	-229.009108	-4.417787	83.745216	-433.003316	-8.679155	81.058034	-32.592390	
1505	7.5250	774.137068	1405.018695	-62.354686	779.301916	1401.502675	-391.783719	729.862663	1492.648765	-231.674296	715.835501	1315.411244	-223.070579	617.122137	1200.447090	95.193565	748.679694	977.848716	2.887688	645.001365	1212.463482	-569.051035	741.233285	980.227237	-448.364820	174.043885	1262.216500	-217.661182	345.115019	1265.969600	-409.590243	348.848853	1280.297656	-42.771652	359.218603	1196.552901	-366.803105	371.116848	1207.980125	-92.610856	207.878223	1312.366292	-175.584936	210.120092	1307.671975	-258.474832	304.062889	1189.625669	-22.939701	272.879371	1145.824233	-414.200312	403.785860	1072.565491	-5.405909	482.389195	1030.492055	-9.046899	530.237162	959.422136	-8.047775	503.361101	1054.705009	-27.113491	592.096959	843.431514	-26.763583	586.773883	821.742207	-149.109188	450.995682	750.819388	-10.470019	385.136633	693.829780	-30.031197	299.655483	675.700499	-34.010253	401.170160	670.921342	-56.222540	180.393864	627.587786	-59.809062	208.012096	617.228115	-143.825289	110.811515	650.589871	-98.426187	274.395916	387.864577	-116.431493	198.700631	474.906427	-42.802950	220.094690	467.580131	-158.224083	325.540977	989.693294	-431.368144	372.562517	917.069516	-428.991043	407.137469	928.837108	-425.040968	377.861400	829.026615	-413.426175	434.220568	716.061261	-391.670398	432.285135	701.889437	-273.534852	360.201838	561.954114	-424.827679	351.087938	478.241259	-408.029902	299.874278	404.116964	-408.754972	381.200550	468.320250	-384.468187	244.904368	290.708873	-398.472020	276.781597	295.072687	-302.815217	170.601421	261.120240	-356.666665	469.774268	173.082139	-351.828244	376.589180	196.784449	-308.712854	349.598405	186.340906	-427.214697	-210.665170	947.333320	-229.035758	-4.432285	83.714908	-432.974068	-8.683137	81.073886	-32.590974	
